<svg xmlns="http://www.w3.org/2000/svg" width="112" height="47" fill="none" viewBox="0 0 112 47">
  <path fill="#727273" d="M56.342 5.129a3.37 3.37 0 0 1 2.066.838c.785.754.991 2.013.62 3.02-1.446 3.017-4.882 5.034-7.23 5.7-1.406.336-3.182.336-4.463-.167-.62.377-1.143 1.596-1.9 1.09-1.097-.869-.148-2.228-.78-3.193-.131-.199-.46-.213-.625-.538-.868-1.929.207-3.774 1.404-5.24 1.997-2.262 7.727-4.78 10.908-1.51ZM49.69 6.638c-1.116.21-2.376.702-3.057 1.51-.682.806-1.115 1.592-.702 2.43 1.446-1.089 2.148-2.598 3.76-3.52-.001-.169.247-.295-.001-.42Zm6.735.42c-2.851-.253-5 1.928-7.024 4.024-.124.335-.868.712-.29 1.09 2.728.251 5.33-.545 7.314-2.39.579-.545.99-1.258.703-2.013a1.471 1.471 0 0 0-.703-.712ZM81.131 19.55c1.322 3.27 2.438 8.426 0 11.571-.66.754-1.817 1.45-2.561.88-2.727-2.221-3.883-5.408-5.577-8.26-.248-.125-.248.21-.372.337-.62 2.892.537 6.666-1.404 8.93-.744.125-1.44-.263-1.695-1.007-.95-2.976.04-6.08.288-9.056.58-1.51.827-3.27 2.108-4.402 2.066.838 3.057 3.187 4.254 4.906.87 1.3 1.57 2.767 2.562 3.94.868-.377.44-1.527.414-2.222-.332-2.725-1.075-5.24-1.778-7.84-.04-.67-.412-1.802.289-2.221 1.862.839 2.645 2.809 3.472 4.444Zm-12.477-1.007c0 .63-.496 1.415-.91 1.51-3.966.628-8.387.251-12.105 1.509-.124.46.413.545.702.67 3.18.503 6.528.629 9.627 1.426 1.639.422 2.232 2.39 2.356 4.025.076 1.289-.412 2.85-1.653 3.731-3.056 1.97-7.725 1.886-10.825.085-1.184-.674-2.313-1.76-2.396-3.102.007-1.066.455-1.905 1.198-2.306 2.976-1.216 6.652-.545 9.214 1.006.164.838-.73.793-1.158 1.09-2.851 1.677-4.999-1.886-7.643-.587-.372.251-.64.953-.207 1.174 3.264 1.467 6.9.419 10.123-.503.371-.126.826-.503.867-.88-.124-1.342-1.611-1.635-2.562-2.012-2.809-.713-5.907-.713-8.924-1.006-.578-.126-1.315-.535-1.487-1.006-.33-1.006-.33-2.39.413-3.228 3.842-3.438 9.667-3.144 14.542-2.222.332.123.703.249.828.626Zm-18.055 1.593c.372 4.025.579 7.757.496 11.99-.083.545-.702.671-1.115.881-.661.126-1.515-.017-1.777-.377-.95-1.552-.62-3.647-.702-5.534.124-2.976.083-6.204.91-8.972.157-.402.619-.754.99-.503.992.503 1.157 1.51 1.198 2.515Zm45.903-.586c.199.339.406.862 0 1.09-1.86.838-4.38.46-6.528.712-.579.503-1.033 1.341-.828 2.096.208.126.393.317.621.293 1.321.084 3.305-.629 4.174.629.212.374-.029 1.771-.62 1.803-1.612.21-4.263-.206-5.041.21-.992.671-.91 1.97-1.281 3.02.702.46 1.438-.011 2.271-.127 1.53-.251 3.225-.712 4.752-.377.29.545.703 1.132.413 1.803-2.604 2.096-5.964 4.245-9.543 2.725-1.343-.611-1.942-2.683-1.487-4.443.289-1.258 1.57-2.474.785-3.815-.124-.588.207-1.09.703-1.216 1.363 0 1.073-1.719 1.776-2.516-.785-.88-2.768-.838-2.561-2.6.95-.502 2.108-.335 3.18-.502 2.438-.504 5.165-.797 7.645-.504.494.101 1.156 1.09 1.569 1.719Zm-59-9.559c3.813 3.162 8.76 8.553 8.14 14.757-.745 4.906-5.868 8.595-10.206 9.77-4.214 1.257-9.502 1.13-13.8.125-.289.797-.578 1.76-1.487 2.096-.578.21-1.322.084-1.777-.293-1.28-1.216-.247-3.564-2.107-4.318-3.636-1.551-7.56-4.612-9.42-8.385-.247-.755.042-1.509.496-2.096 2.851-2.306 6.445-3.228 10.04-3.94.207.083.124-.21.29-.294.206-2.516.288-5.074 1.073-7.338.18-.317.62-.419.91-.21 2.272 1.761 1.197 5.074 2.19 7.463 4.337.21 8.676.42 12.105 2.894 1.157.964 1.439 2.805 1.074 3.857-.365 1.05-1.57 1.803-2.686 1.885-.744 0-2.148.074-2.066-.502.083-.576 2.528-1.52 1.777-2.306-1.08-1.13-6.48-1.803-9.826-2.223-.414-.083-.792.042-.792.503-.083 3.186-.33 6.708.206 9.77.041.21.29.461.496.502 5.908.964 12.147.419 16.774-3.019 2.149-1.76 2.852-4.235 2.48-6.96-1.86-7.587-9.668-12.158-16.073-15.092C19.076 3.87 12.176 2.445 4.78 2.823c-1.177.087-3.043.5-3.057.923-.013.422 2.114.29 1.86 1.09-.255.799-2.418.324-3.058.125-.64-.2-.578-1.132-.413-1.719C1.722.349 6.219.116 8.25.014 19.487-.28 30.354 4.063 37.501 9.992ZM17.257 21.228c-2.851.042-5.867.335-8.511 1.341-.537.21-1.198.797-.785 1.51 1.074 1.467 2.61 2.671 4.049 3.521 1.439.849 3.347 1.929 5.082 2.18.413-2.725.413-5.408.372-8.217-.166-.084 0-.251-.207-.335Zm85.4-3.816c-.124 3.648-3.472 5.912-3.472 9.56.124.125.208.293.372.21 2.687-2.977 5.33-7.211 9.255-8.469 1.035-.084 1.969.828 2.356 1.51 1.364 2.767 1.035 6.666-.867 9.181-1.961 2.47-5.372 4.947-9.254 4.527a54.4 54.4 0 0 0-3.348 12.662c-.33.88-1.115.084-1.61-.084-3.347-2.683-.599-9.786-.372-10.692.227-.904 1.122-3.036 1.777-4.821-1.57-2.85-.579-6.29.702-8.93.991-1.761 2.356-3.522 3.967-4.864.205.001.37.043.494.21Zm6.653 4.528c-.496-.083-.703.588-1.115.714-1.9 2.18-3.802 4.36-4.752 6.96 1.281.167 2.355-.672 3.471-1.133 1.9-1.216 3.099-3.227 2.975-5.533-.083-.379-.414-.672-.579-1.008Z"/>
</svg>
