<svg xmlns="http://www.w3.org/2000/svg" width="138" height="27" fill="none" viewBox="0 0 138 27">
  <g clip-path="url(#a)">
    <path fill="#727273" d="M9.352 26.384H4.2v-12.98H.691V9.178h3.51V6.171C4.2 2.608 5.751.052 10.89.052c1.086 0 2.792.222 2.792.222v3.924H11.89c-1.826 0-2.539.561-2.539 2.113v2.867h4.262l-.38 4.226h-3.88v12.98ZM21.172 8.84c-.075 0-.152.002-.228.004-4.777 0-6.963 3.632-6.963 8.787 0 6.494 2.835 9.093 7 9.093 2.383 0 3.948-1.014 4.9-2.905v2.565h4.9V9.18h-4.9v2.646c-.777-1.702-2.386-2.965-4.709-2.985Zm1.246 4.065c2.007 0 3.21 1.415 3.21 3.82l.006 2.458c0 1.621-.995 3.518-3.216 3.518-3.413 0-3.322-3.725-3.322-4.966 0-4.174 1.819-4.83 3.322-4.83Zm10.342 4.878c0-2.091-.1-8.932 8.72-8.932 3.54 0 5.017 1.137 5.017 1.137l-1.188 3.725s-1.476-.822-3.4-.822c-2.463 0-4.035 1.444-4.035 3.983l.002 1.822c0 2.44 1.517 4.07 4.039 4.07 1.752 0 3.367-.83 3.367-.83l1.185 3.646s-1.351 1.145-4.963 1.145c-8.397 0-8.744-6.138-8.744-8.944Zm42.467-8.939c4.777 0 6.997 3.632 6.997 8.787 0 6.494-2.835 9.093-7 9.093-2.383 0-4.144-1.013-5.096-2.905v2.565l-4.838-.002V.577l5.137-.453v11.47c.742-2.007 3.178-2.748 4.8-2.748Zm-1.44 4.061c-2.006 0-3.36 1.415-3.36 3.82l-.005 2.458c-.003 1.621.938 3.518 3.365 3.518 3.414 0 3.323-3.725 3.323-4.966 0-4.174-1.82-4.83-3.323-4.83ZM55.41 8.86c-5.418 0-8.278 2.985-8.278 8.29v.987c0 6.886 4.017 8.659 8.806 8.659 4.654 0 6.761-1.316 6.761-1.316l-.96-3.504s-2.48 1.066-5.185 1.066c-2.806 0-4.012-.723-4.322-3.448H63.11v-2.811c0-5.755-3.21-7.923-7.7-7.923Zm.131 3.508c1.876 0 3.09 1.163 3.024 3.858h-6.323c.11-2.837 1.42-3.858 3.299-3.858Zm36.926-3.532c-5.564 0-8.493 3.169-8.493 8.848 0 7.791 5.05 9.046 8.502 9.046 5.055 0 8.419-2.75 8.419-8.976 0-6.478-3.782-8.918-8.428-8.918Zm-.07 4.084c2.447 0 3.416 1.85 3.416 3.957v1.812c0 2.551-1.357 4.027-3.425 4.027-1.935 0-3.295-1.38-3.295-4.027v-1.812c0-2.823 1.618-3.957 3.304-3.957Zm18.731-4.084c-5.564 0-8.493 3.169-8.493 8.848 0 7.791 5.049 9.046 8.503 9.046 5.055 0 8.418-2.75 8.418-8.976 0-6.478-3.782-8.918-8.428-8.918Zm-.07 4.084c2.447 0 3.416 1.85 3.416 3.957v1.812c0 2.551-1.356 4.027-3.425 4.027-1.935 0-3.295-1.38-3.295-4.027v-1.812c0-2.823 1.618-3.957 3.304-3.957Zm10.439 13.464V.576l5.152-.453V17.42l5.111-8.243h5.441l-5.332 8.537 5.537 8.669h-5.456l-5.301-8.417v8.417h-5.152Z"/>
  </g>
  <defs>
    <clipPath id="a">
      <path fill="#fff" d="M0 0h138v27H0z"/>
    </clipPath>
  </defs>
</svg>
