<svg xmlns="http://www.w3.org/2000/svg" width="112" height="37" fill="none" viewBox="0 0 112 37">
  <g clip-path="url(#a)">
    <path fill="#727273" d="M13.756 0h.993c3.449.076 6.84 1.477 9.277 3.959-.9.928-1.818 1.818-2.699 2.746-1.368-1.25-3.017-2.216-4.816-2.557-2.661-.568-5.528-.057-7.759 1.477-2.436 1.61-4.085 4.338-4.441 7.255-.394 2.879.412 5.91 2.267 8.144 1.78 2.178 4.498 3.542 7.31 3.637 2.623.151 5.359-.663 7.27-2.52 1.5-1.306 2.193-3.295 2.418-5.227-3.11 0-6.222.019-9.333 0v-3.902h13.1c.674 4.186-.3 8.902-3.448 11.895-2.1 2.122-5.004 3.372-7.965 3.618-2.867.284-5.828-.265-8.377-1.667-3.055-1.648-5.491-4.432-6.69-7.709-1.125-3.012-1.144-6.42-.094-9.451a14.406 14.406 0 0 1 5.154-6.914C8.19 1.1 10.945.17 13.756 0Zm75.15.985h4.01v27.047c-1.33 0-2.68.02-4.01-.019.018-8.997 0-18.012 0-27.028ZM36.263 10.36c2.474-.473 5.154.058 7.196 1.554 1.855 1.326 3.149 3.41 3.542 5.682.506 2.633-.131 5.512-1.818 7.595-1.818 2.33-4.797 3.58-7.702 3.39-2.661-.15-5.247-1.496-6.822-3.693-1.78-2.424-2.211-5.758-1.236-8.599.974-3.05 3.729-5.379 6.84-5.928Zm.562 3.6a5.032 5.032 0 0 0-2.624 1.685c-1.817 2.197-1.705 5.777.3 7.823 1.143 1.174 2.867 1.723 4.46 1.401 1.481-.265 2.774-1.269 3.486-2.595 1.237-2.253.881-5.36-1.012-7.121-1.218-1.137-2.998-1.61-4.61-1.193Zm19.301-3.6c2.83-.549 5.922.247 8.04 2.255 3.448 3.125 3.823 8.978.88 12.576-1.78 2.273-4.666 3.523-7.514 3.39-2.718-.075-5.397-1.439-7.01-3.693-1.817-2.481-2.21-5.89-1.18-8.788 1.03-2.955 3.73-5.21 6.784-5.74Zm.562 3.6a5.118 5.118 0 0 0-2.623 1.666c-1.8 2.16-1.724 5.682.206 7.747 1.143 1.231 2.923 1.837 4.573 1.496 1.461-.284 2.773-1.269 3.485-2.595 1.218-2.273.862-5.379-1.05-7.14-1.217-1.137-2.998-1.591-4.59-1.175Zm16.288-2.5c2.155-1.365 5.023-1.743 7.346-.569.731.322 1.33.871 1.912 1.42.019-.51 0-1.041.019-1.572 1.255.02 2.51 0 3.785.02v16.705c-.019 2.52-.656 5.19-2.455 7.027-1.968 2.027-4.985 2.652-7.702 2.235-2.905-.435-5.435-2.576-6.56-5.284 1.125-.55 2.306-.985 3.468-1.497.656 1.553 1.986 2.88 3.654 3.182 1.668.303 3.598-.113 4.685-1.515 1.162-1.44 1.162-3.41 1.106-5.17-.862.852-1.855 1.61-3.055 1.893-2.605.74-5.472-.17-7.477-1.95-2.024-1.78-3.224-4.527-3.111-7.255.056-3.087 1.78-6.06 4.385-7.67Zm3.88 2.424c-1.144.19-2.212.833-2.943 1.723-1.762 2.122-1.762 5.512.019 7.596 1.012 1.23 2.642 1.913 4.216 1.742 1.48-.151 2.849-1.099 3.58-2.405 1.237-2.216 1.03-5.228-.637-7.16a4.584 4.584 0 0 0-4.236-1.496Zm20.874-1.459c2.248-2.121 5.715-2.841 8.601-1.724 2.736 1.042 4.479 3.675 5.36 6.383-4.067 1.705-8.114 3.39-12.181 5.096.562 1.08 1.424 2.064 2.586 2.462 1.63.587 3.579.379 4.948-.72.543-.417.974-.966 1.386-1.496 1.031.7 2.062 1.383 3.092 2.083-1.461 2.216-3.916 3.77-6.559 4.016-2.923.36-6.034-.777-7.927-3.088-3.11-3.636-2.811-9.735.694-13.012Zm2.005 3.504c-.638.928-.9 2.065-.881 3.182 2.717-1.136 5.435-2.273 8.152-3.428-.45-1.06-1.537-1.705-2.642-1.875-1.781-.322-3.636.644-4.63 2.121Z"/>
  </g>
  <defs>
    <clipPath id="a">
      <path fill="#fff" d="M0 0h112v37H0z"/>
    </clipPath>
  </defs>
</svg>
