<svg xmlns="http://www.w3.org/2000/svg" width="20" height="20" fill="none" viewBox="0 0 20 20">
  <path fill="#050507" d="M16.875 1.875H3.125a1.25 1.25 0 0 0-1.25 1.25v13.75a1.25 1.25 0 0 0 1.25 1.25h13.75a1.25 1.25 0 0 0 1.25-1.25V3.125a1.25 1.25 0 0 0-1.25-1.25Zm0 15H3.125V3.125h13.75v13.75ZM7.5 8.75v5a.625.625 0 1 1-1.25 0v-5a.625.625 0 0 1 1.25 0Zm6.875 2.188v2.812a.624.624 0 1 1-1.25 0v-2.813a1.563 1.563 0 1 0-3.125 0v2.813a.625.625 0 1 1-1.25 0v-5a.625.625 0 0 1 1.234-.14 2.812 2.812 0 0 1 4.391 2.328ZM7.812 6.561a.937.937 0 1 1-1.874 0 .937.937 0 0 1 1.875 0Z"/>
</svg>
