<svg xmlns="http://www.w3.org/2000/svg" width="150" height="45" fill="none" viewBox="0 0 150 45">
  <g clip-path="url(#a)">
    <path fill="#727273" d="M22.494 0C10.071 0 0 10.073 0 22.5S10.071 45 22.494 45C34.918 45 44.99 34.927 44.99 22.5 44.989 10.074 34.919 0 22.494 0ZM32.81 32.45a1.401 1.401 0 0 1-1.928.468c-5.282-3.23-11.93-3.96-19.76-2.17a1.401 1.401 0 1 1-.625-2.733c8.57-1.96 15.92-1.117 21.848 2.507.661.406.87 1.269.465 1.93v-.001Zm2.753-6.125a1.754 1.754 0 0 1-2.412.578c-6.045-3.717-15.263-4.793-22.415-2.622a1.756 1.756 0 0 1-2.189-1.169 1.757 1.757 0 0 1 1.17-2.188c8.17-2.479 18.325-1.278 25.269 2.99a1.754 1.754 0 0 1 .577 2.412Zm.237-6.38c-7.251-4.306-19.211-4.702-26.133-2.601a2.104 2.104 0 1 1-1.222-4.028c7.946-2.412 21.155-1.946 29.502 3.01a2.105 2.105 0 0 1-2.147 3.62Zm25.4.826c-3.884-.926-4.576-1.576-4.576-2.943 0-1.29 1.215-2.159 3.022-2.159 1.752 0 3.488.66 5.309 2.017a.254.254 0 0 0 .36-.056l1.896-2.674a.255.255 0 0 0-.048-.346c-2.167-1.74-4.607-2.585-7.46-2.585-4.193 0-7.122 2.517-7.122 6.119 0 3.862 2.527 5.23 6.893 6.285 3.717.857 4.344 1.574 4.344 2.856 0 1.421-1.268 2.305-3.31 2.305-2.267 0-4.116-.764-6.184-2.556a.266.266 0 0 0-.187-.06.252.252 0 0 0-.175.09l-2.126 2.53a.252.252 0 0 0 .025.353c2.407 2.15 5.367 3.284 8.561 3.284 4.52 0 7.44-2.47 7.44-6.292.007-3.227-1.924-5.013-6.654-6.164l-.008-.004Zm16.885-3.831c-1.959 0-3.566.771-4.89 2.353v-1.78a.255.255 0 0 0-.254-.255h-3.478a.255.255 0 0 0-.254.255v19.775c0 .14.113.255.254.255h3.478c.14 0 .254-.114.254-.255v-6.242c1.325 1.487 2.932 2.214 4.89 2.214 3.64 0 7.323-2.802 7.323-8.16.006-5.357-3.68-8.16-7.32-8.16h-.003Zm3.28 8.16c0 2.729-1.68 4.632-4.086 4.632-2.378 0-4.172-1.99-4.172-4.631s1.794-4.631 4.172-4.631c2.367 0 4.086 1.947 4.086 4.63Zm13.487-8.16c-4.688 0-8.36 3.61-8.36 8.22 0 4.558 3.647 8.13 8.302 8.13 4.704 0 8.387-3.597 8.387-8.19 0-4.575-3.659-8.16-8.33-8.16Zm0 12.82c-2.493 0-4.373-2.004-4.373-4.66 0-2.668 1.814-4.604 4.315-4.604 2.51 0 4.401 2.004 4.401 4.662 0 2.667-1.826 4.601-4.343 4.601Zm18.338-12.502h-3.827v-3.914a.255.255 0 0 0-.254-.254h-3.477a.255.255 0 0 0-.255.254v3.914h-1.672a.255.255 0 0 0-.254.255v2.99c0 .14.114.255.254.255h1.672v7.735c0 3.126 1.555 4.711 4.623 4.711 1.248 0 2.283-.258 3.258-.81a.254.254 0 0 0 .128-.221v-2.847a.253.253 0 0 0-.121-.217.253.253 0 0 0-.247-.012 4.384 4.384 0 0 1-2.042.493c-1.116 0-1.613-.507-1.613-1.642v-7.19h3.827c.14 0 .253-.114.253-.254v-2.99a.246.246 0 0 0-.25-.254l-.003-.002Zm13.334.015v-.48c0-1.414.542-2.045 1.757-2.045.725 0 1.308.144 1.96.362a.253.253 0 0 0 .334-.243v-2.931a.254.254 0 0 0-.18-.244 9.54 9.54 0 0 0-2.89-.416c-3.212 0-4.91 1.81-4.91 5.23v.737h-1.671a.256.256 0 0 0-.255.255v3.005c0 .14.115.255.255.255h1.671v11.931c0 .14.113.255.253.255h3.478a.255.255 0 0 0 .255-.255V20.76h3.247l4.974 11.928c-.565 1.253-1.12 1.503-1.878 1.503-.613 0-1.258-.183-1.918-.544a.26.26 0 0 0-.202-.02.261.261 0 0 0-.151.138l-1.178 2.586a.254.254 0 0 0 .109.33c1.231.666 2.342.95 3.715.95 2.567 0 3.987-1.196 5.238-4.415l6.033-15.594a.25.25 0 0 0-.027-.236.251.251 0 0 0-.209-.11h-3.62a.255.255 0 0 0-.241.17l-3.709 10.596-4.062-10.603a.254.254 0 0 0-.238-.164h-5.941.001Zm-7.731-.015h-3.478a.256.256 0 0 0-.255.255v15.176c0 .14.115.255.255.255h3.478c.14 0 .255-.114.255-.255V17.514a.255.255 0 0 0-.255-.255v-.001Zm-1.719-6.91a2.495 2.495 0 1 0-.005 4.989 2.495 2.495 0 0 0 .006-4.99h-.001Zm30.466 11.79a2.438 2.438 0 0 1-2.448-2.449 2.46 2.46 0 0 1 2.461-2.46A2.437 2.437 0 0 1 150 19.674a2.462 2.462 0 0 1-2.46 2.462Zm.013-4.666c-1.253 0-2.202.997-2.202 2.217 0 1.22.942 2.204 2.19 2.204 1.253 0 2.202-.996 2.202-2.218 0-1.22-.942-2.203-2.189-2.203h-.001Zm.543 2.455.692.97h-.584l-.623-.89h-.536v.89h-.488v-2.57h1.145c.597 0 .99.305.99.82.002.42-.242.678-.594.78h-.002Zm-.414-1.16h-.637v.813h.637c.318 0 .508-.155.508-.406 0-.265-.191-.406-.508-.406Z"/>
  </g>
  <defs>
    <clipPath id="a">
      <path fill="#fff" d="M0 0h150v45H0z"/>
    </clipPath>
  </defs>
</svg>
