<svg xmlns="http://www.w3.org/2000/svg" width="20" height="20" fill="none" viewBox="0 0 20 20">
  <path fill="#050507" d="M19.327 5.386A.624.624 0 0 0 18.75 5h-2.377a3.802 3.802 0 0 0-3.24-1.875 3.665 3.665 0 0 0-2.637 1.07 3.743 3.743 0 0 0-1.121 2.68v.476C6.23 6.52 3.657 3.962 3.63 3.935a.625.625 0 0 0-1.067.384c-.336 3.734.748 6.233 1.719 7.67a8.666 8.666 0 0 0 1.71 1.891c-1.19 1.37-3.064 2.09-3.084 2.097a.625.625 0 0 0-.301.932c.059.088.293.395.866.682.707.354 1.643.534 2.777.534 5.521 0 10.134-4.252 10.605-9.722l2.337-2.336a.625.625 0 0 0 .135-.681Zm-3.515 2.298a.625.625 0 0 0-.181.401c-.319 4.929-4.437 8.79-9.381 8.79-.825 0-1.406-.11-1.814-.24.9-.489 2.153-1.329 2.96-2.538a.625.625 0 0 0-.208-.888c-.037-.02-3.431-2.057-3.438-7.5C5 6.725 7.285 8.301 9.896 8.74a.625.625 0 0 0 .729-.614v-1.25a2.5 2.5 0 0 1 .75-1.79 2.416 2.416 0 0 1 1.742-.71c.99.012 1.913.616 2.3 1.5a.625.625 0 0 0 .573.375h1.25l-1.428 1.434Z"/>
</svg>
