<svg xmlns="http://www.w3.org/2000/svg" width="127" height="29" fill="none" viewBox="0 0 127 29">
  <g clip-path="url(#a)">
    <path fill="#727273" d="m21.402 28.444-8.25-.153c-2.67-.053-5.348.053-7.967-.497C1.202 26.97.92 22.939.625 19.556.216 14.8.374 9.958 1.142 5.242 1.576 2.596 3.283 1.017 5.92.845 14.826.22 23.79.295 32.676.586c.939.027 1.884.173 2.81.338 4.567.81 4.678 5.38 4.974 9.227.295 3.886.17 7.793-.394 11.653-.453 3.197-1.32 5.877-4.975 6.136-4.58.338-9.056.61-13.65.524 0-.02-.026-.02-.04-.02Zm-4.85-8.092c3.452-2.003 6.838-3.973 10.27-5.963-3.458-2.003-6.838-3.973-10.27-5.963v11.926Zm90.075 4.457c-.157.65-.295 1.16-.433 1.705h-3.229V1.342h3.767v9.286c.197-.252.296-.358.381-.47.643-.896 1.476-1.48 2.553-1.706 1.713-.338 3.176.425 3.695 2.09.334 1.034.551 2.142.577 3.223.053 2.78.013 5.552-.085 8.331-.04.85-.296 1.718-.617 2.514-1.057 2.627-4.509 3.025-6.222.75-.105-.14-.203-.292-.387-.551Zm.184-6.925v4.604c0 .749.394 1.207 1.135 1.38.729.172 1.319-.114 1.615-.797.124-.285.249-.584.256-.882.072-2.812.138-5.625.157-8.444 0-.524-.124-1.067-.282-1.578-.295-.922-1.109-1.194-1.91-.657-.603.411-.971.995-.971 1.771v4.603ZM96.573 8.811h3.944v17.716h-3.078c-.111-.67-.223-1.36-.354-2.17-.21.313-.335.512-.466.71-1.024 1.493-2.474 2.004-4.187 1.732-1.463-.239-2.343-1.38-2.54-3.25a15.98 15.98 0 0 1-.085-1.678c-.013-4.146 0-8.305 0-12.45v-.624h3.99v.723c0 4.007-.013 8.006.013 12.012 0 .57.06 1.161.158 1.732.111.583.531.796 1.096.756.912-.073 1.542-.756 1.542-1.672V9.593c-.033-.258-.033-.497-.033-.782Zm-27.156-.014h3.964v.75c0 3.986-.013 7.966.013 11.939 0 .57.052 1.16.17 1.718.152.656.532.869 1.182.782.899-.126 1.444-.756 1.45-1.678V8.824h3.944v17.703h-3.064c-.112-.657-.224-1.333-.368-2.189a31.21 31.21 0 0 0-.42.65c-1.024 1.519-2.461 2.076-4.213 1.804-1.405-.212-2.264-1.26-2.527-2.978a12.017 12.017 0 0 1-.124-1.605c-.014-4.305-.014-8.63-.014-12.934l.007-.478Zm-2.035 9.459c-.013.597-.052 1.194-.085 1.79-.15 1.791-.223 4.332-1.654 5.639-.912.822-2.067 1.12-3.261 1.16-.532.014-1.07.014-1.601-.06-2.514-.384-3.682-1.505-4.102-4.297-.48-3.224-.519-6.5.052-9.724.59-3.337 2.625-4.517 5.789-4.298 2.953.212 4.272 2.169 4.62 4.954.19 1.599.282 3.217.242 4.836Zm-4.016-.61c0-1.135.026-2.276-.013-3.41a11.792 11.792 0 0 0-.25-1.97c-.157-.75-.63-1.107-1.22-1.094-.578.013-.984.371-1.194 1.068-.073.258-.151.524-.151.783 0 1.777-.013 3.561-.027 5.339-.013 1.658-.223 3.396.296 4.981.157.484.564.75 1.096.75.518 0 .86-.26 1.05-.723.15-.358.282-.75.282-1.135.046-1.525.131-3.057.131-4.59Zm-12.475-3.337c.347-1.718.675-3.396 1.036-5.08.453-2.143.959-4.285 1.405-6.434.111-.524.321-.65.814-.637 1.056.04 2.133.013 3.261.013-.367 1.367-.728 2.667-1.083 3.947a3276.39 3276.39 0 0 0-3.353 12.085 3.77 3.77 0 0 0-.125.981c-.013 2.202 0 4.398 0 6.6v.716h-3.852c-.013-.199-.04-.398-.04-.597 0-1.247-.098-2.5.014-3.734.282-2.965-.65-5.69-1.405-8.45-.997-3.648-2.008-7.31-3.005-10.958-.053-.172-.073-.358-.125-.57h3.93c.828 4.026 1.661 8.052 2.528 12.118Zm75.372 4.623h-6.642c.073 1.347.099 2.627.237 3.894.098.882.577 1.26 1.332 1.267.787.013 1.247-.385 1.43-1.26.06-.286.099-.571.125-.863.026-.259.04-.537.059-.909 1.122.06 2.218.127 3.301.173.63 1.89-.505 4.318-2.415 5.067-1.503.597-3.045.597-4.581.14-1.135-.339-1.981-1.068-2.362-2.19-.355-1.047-.689-2.142-.761-3.236-.197-2.7-.269-5.426.137-8.132a9.34 9.34 0 0 1 .335-1.32c.551-1.804 1.752-2.912 3.61-3.097 1.01-.1 2.054-.06 3.051.112 1.615.286 2.474 1.46 2.848 2.998.171.723.296 1.466.322 2.203.007 1.691-.026 3.37-.026 5.153Zm-3.774-2.328c0-1.333.013-2.587-.013-3.847 0-.298-.111-.61-.223-.895-.223-.557-.689-.71-1.247-.71-.558 0-.912.285-1.05.796-.42 1.532-.282 3.098-.269 4.67 1.004-.014 1.916-.014 2.802-.014Z"/>
    <path fill="#727273" d="M83.185 5.422H79.28V2.225h11.656v3.177h-3.879V26.5h-3.865l-.007-21.08Z"/>
  </g>
  <defs>
    <clipPath id="a">
      <path fill="#fff" d="M0 0h127v29H0z"/>
    </clipPath>
  </defs>
</svg>
